{"glyphs":{":":{"x_min":0,"x_max":252,"ha":252,"o":""},"$":{"x_min":0,"x_max":444,"ha":444,"o":"m 380 148 q 380 87 347 53 q 314 18 251 11 q 251 -42 255 -134 l 214 -134 l 215 -100 q 218 -58 218 -25 q 218 -14 217 10 q 148 10 71 32 l 83 72 q 116 58 152 51 q 188 43 223 43 q 285 43 317 67 q 349 90 349 138 q 349 171 324 192 q 299 213 221 238 q 143 262 111 292 q 80 322 80 366 q 80 422 116 453 q 152 484 218 492 q 218 589 214 644 l 255 644 q 252 616 252 583 q 251 550 251 492 q 302 491 365 478 l 350 438 q 323 449 296 454 q 270 459 230 459 q 173 459 145 439 q 116 419 116 377 q 116 340 140 319 q 163 297 245 270 q 327 243 354 217 q 380 191 380 148 z"},"?":{"x_min":0,"x_max":353,"ha":353,"o":"m 161 259 l 142 259 l 128 366 q 260 382 260 500 q 260 556 208 585 q 156 613 52 613 l 29 613 l 43 652 q 165 652 233 609 q 302 566 302 496 q 302 441 270 401 q 238 360 171 336 z m 152 100 q 175 100 184 88 q 193 76 193 55 q 193 33 178 17 q 164 1 142 1 q 121 1 111 14 q 101 28 101 47 q 101 71 115 86 q 129 100 152 100 z"},"<":{"x_min":0,"x_max":504,"ha":504,"o":"m 435 48 l 412 17 l 52 247 l 52 263 l 412 493 l 436 464 l 112 260 l 112 249 z"},"'":{"x_min":0,"x_max":234,"ha":234,"o":"m 118 694 q 137 694 144 674 q 151 654 151 616 q 151 593 148 567 q 146 542 136 478 l 118 343 l 104 343 q 98 425 91 500 q 83 575 83 628 q 83 662 92 678 q 100 694 118 694 z"},"=":{"x_min":0,"x_max":504,"ha":504,"o":"m 452 328 l 52 328 l 52 364 l 452 364 z m 452 128 l 52 128 l 52 164 l 452 164 z"},"a":{"x_min":0,"x_max":491,"ha":491,"o":"m 367 50 q 302 -12 203 -12 q 129 -12 89 21 q 49 54 49 117 q 49 197 117 240 q 186 283 367 284 q 369 302 369 319 q 369 386 331 412 q 293 438 227 438 q 149 438 70 418 l 76 460 q 151 480 229 480 q 313 480 361 445 q 408 410 408 329 q 408 303 406 252 q 403 202 403 152 q 403 80 414 0 l 375 -2 q 370 28 370 50 z m 369 250 q 240 250 167 220 q 93 191 93 113 q 93 26 208 26 q 261 26 302 42 q 342 57 369 89 z"},"L":{"x_min":0,"x_max":491,"ha":491,"o":"m 152 196 l 152 97 q 152 54 152 35 q 332 35 474 40 l 472 0 l 109 0 q 113 146 113 335 q 113 423 112 499 q 112 574 109 636 l 159 636 q 151 526 151 335 q 151 281 152 196 z"},"3":{"x_min":0,"x_max":501,"ha":501,"o":"m 280 243 l 280 241 q 345 226 386 186 q 427 146 427 76 q 427 -34 316 -108 q 206 -182 53 -191 l 38 -152 q 191 -144 287 -88 q 383 -32 383 62 q 383 118 360 150 q 338 183 291 200 q 245 217 119 217 l 127 254 q 195 254 252 266 q 309 279 333 308 q 357 338 357 375 q 357 430 323 455 q 289 479 212 479 q 134 479 72 463 l 75 505 q 135 520 219 520 q 299 520 349 486 q 399 453 399 390 q 399 334 371 299 q 344 264 280 243 z"},";":{"x_min":0,"x_max":252,"ha":252,"o":""},"J":{"x_min":0,"x_max":433,"ha":433,"o":"m 324 227 q 324 105 271 46 q 218 -13 114 -13 q 49 -13 17 -3 l 22 39 q 62 22 104 22 q 203 22 243 68 q 284 115 284 250 q 284 496 276 636 l 327 636 q 324 555 324 392 z"},"V":{"x_min":0,"x_max":535,"ha":535,"o":"m 394 319 q 349 218 315 121 q 281 23 281 0 l 238 0 q 238 42 181 192 q 124 343 64 478 q 5 612 5 636 l 56 636 q 56 601 156 359 q 255 118 261 57 l 263 57 q 263 81 285 141 q 307 202 371 352 l 403 427 q 449 536 466 579 q 483 622 483 636 l 529 636 q 529 623 513 584 q 497 545 453 448 z"},"\"":{"x_min":0,"x_max":447,"ha":447,"o":""},"7":{"x_min":0,"x_max":481,"ha":481,"o":"m 207 -20 l 182 -64 q 155 -113 144 -133 q 133 -154 133 -161 l 86 -151 q 86 -141 105 -105 q 125 -70 169 3 l 198 50 q 257 150 315 275 q 374 401 379 475 q 204 475 44 471 l 45 515 l 427 515 q 427 453 380 331 q 334 209 207 -20 z"},"S":{"x_min":0,"x_max":499,"ha":499,"o":"m 442 157 q 442 72 383 29 q 324 -14 211 -14 q 123 -14 58 5 l 68 51 q 109 35 146 29 q 182 23 223 23 q 315 23 358 53 q 402 83 402 153 q 402 207 368 242 q 334 277 237 312 q 140 348 102 386 q 64 425 64 485 q 64 557 118 601 q 172 645 250 645 q 337 645 399 628 l 389 587 q 344 598 312 602 q 281 607 247 607 q 179 607 141 576 q 104 545 104 498 q 104 462 115 441 q 127 420 157 399 q 188 377 242 357 q 296 336 337 315 q 378 294 401 270 q 423 246 433 219 q 442 192 442 157 z"},"}":{"x_min":0,"x_max":353,"ha":353,"o":"m 261 254 q 209 258 176 287 q 142 316 142 364 q 142 387 164 465 q 186 544 186 577 q 186 634 147 666 q 108 697 25 714 l 36 743 q 146 715 183 678 q 219 641 219 577 q 219 538 199 465 q 179 392 179 362 q 179 319 208 300 q 238 280 297 272 l 297 234 q 237 226 208 207 q 179 187 179 144 q 179 114 199 41 q 219 -33 219 -71 q 219 -134 183 -172 q 146 -209 36 -237 l 25 -208 q 108 -191 147 -159 q 186 -128 186 -71 q 186 -38 164 41 q 142 120 142 142 q 142 190 176 219 q 209 249 261 253 z"},"Z":{"x_min":0,"x_max":523,"ha":523,"o":"m 58 0 l 61 25 q 91 74 162 200 q 233 327 308 454 q 384 582 384 598 l 384 600 l 286 601 q 177 601 63 596 l 67 636 l 445 636 l 444 608 q 404 552 261 302 q 118 51 118 40 l 118 35 q 192 35 274 37 q 355 38 461 44 l 460 0 z"},"x":{"x_min":0,"x_max":493,"ha":493,"o":"m 181 365 q 187 356 206 327 q 226 297 242 276 l 245 276 q 313 356 346 407 q 379 457 379 464 l 433 464 q 433 458 359 366 q 286 274 264 251 l 264 249 q 314 188 360 126 q 405 65 417 50 l 437 25 q 439 21 447 12 q 455 2 455 0 l 399 0 q 399 8 348 81 q 297 153 242 225 l 241 225 q 206 177 177 136 q 149 95 120 52 q 91 10 91 0 l 37 0 q 37 6 53 29 q 69 52 107 100 l 152 159 q 201 223 223 248 l 223 249 q 199 282 125 378 l 101 409 q 95 416 78 438 q 61 460 61 464 l 117 464 q 117 458 128 442 q 139 425 164 390 z"},")":{"x_min":0,"x_max":353,"ha":353,"o":"m 43 -232 q 157 -139 212 -19 q 268 102 268 250 q 268 398 212 519 q 157 639 43 732 l 60 743 q 182 667 246 541 q 309 416 309 250 q 309 84 246 -41 q 182 -167 60 -243 z"},"&":{"x_min":0,"x_max":672,"ha":672,"o":"m 602 0 q 584 49 507 143 q 460 70 397 28 q 333 -14 250 -14 q 176 -14 116 38 q 56 90 56 170 q 56 219 71 254 q 85 290 115 318 q 144 347 218 386 q 157 433 139 461 q 121 490 121 521 q 121 577 160 612 q 199 646 258 646 q 322 646 363 614 q 404 582 404 532 q 404 485 372 452 q 341 419 280 388 q 303 370 382 310 q 461 250 502 207 q 534 275 537 372 l 588 372 q 574 263 529 179 q 635 60 652 0 z m 256 406 q 309 437 335 463 q 362 490 362 525 q 362 567 333 588 q 305 609 260 609 q 220 609 191 589 q 161 570 161 528 q 161 503 175 480 q 189 458 244 415 z m 483 170 q 449 206 405 242 q 360 279 288 333 l 242 368 q 173 330 147 304 q 122 277 109 246 q 96 215 96 172 q 96 107 145 65 q 193 23 255 23 q 333 23 388 62 q 443 102 483 170 z"},"_":{"x_min":0,"x_max":504,"ha":504,"o":"m 504 -246 l 0 -246 l 0 -213 l 504 -213 z"},"v":{"x_min":0,"x_max":471,"ha":471,"o":"m 241 0 l 218 0 q 218 18 195 78 q 171 137 123 240 l 104 280 q 66 363 47 406 q 28 450 28 464 l 73 464 q 73 439 153 266 q 233 93 233 69 l 236 69 q 236 90 272 174 q 308 257 353 348 q 397 440 397 464 l 444 464 q 444 449 343 240 q 241 31 241 0 z"},"O":{"x_min":0,"x_max":691,"ha":691,"o":"m 57 309 q 57 461 145 554 q 233 647 351 647 q 466 647 550 560 q 634 473 634 326 q 634 166 546 73 q 458 -20 339 -20 q 229 -20 143 65 q 57 150 57 309 z m 99 309 q 99 166 175 90 q 251 13 354 13 q 446 13 519 97 q 592 181 592 317 q 592 462 518 538 q 443 614 337 614 q 274 614 217 573 q 160 531 129 462 q 99 393 99 309 z"},"(":{"x_min":0,"x_max":353,"ha":353,"o":"m 310 732 q 196 639 141 519 q 85 398 85 250 q 85 102 141 -19 q 196 -139 310 -232 l 293 -243 q 171 -167 107 -41 q 44 84 44 250 q 44 416 107 541 q 171 667 293 743 z"},"C":{"x_min":0,"x_max":546,"ha":546,"o":"m 390 645 q 417 645 435 642 q 454 639 479 631 l 469 590 q 413 605 379 605 q 255 605 177 526 q 99 446 99 317 q 99 170 178 96 q 258 22 402 22 q 450 22 519 43 l 516 7 q 462 -13 390 -13 q 236 -13 147 71 q 57 155 57 304 q 57 403 102 481 q 147 559 224 602 q 302 645 390 645 z"},"W":{"x_min":0,"x_max":856,"ha":856,"o":"m 850 636 q 850 619 796 478 q 742 336 695 185 q 648 34 648 0 l 605 0 q 605 27 555 196 q 504 365 432 579 l 427 579 q 412 532 359 385 q 306 237 276 131 q 245 24 245 0 l 202 0 q 202 19 180 99 q 158 179 121 298 q 83 417 63 471 q 42 525 36 545 l 23 581 q 21 588 13 609 q 6 630 6 636 l 57 636 q 57 616 137 368 q 218 120 223 56 l 225 56 q 226 99 313 354 q 401 608 401 636 l 459 636 q 459 618 540 370 q 620 122 626 56 l 628 56 q 629 98 717 354 q 804 610 804 636 z"},"A":{"x_min":0,"x_max":605,"ha":605,"o":"m 143 232 q 98 127 78 72 q 57 16 57 0 l 5 0 q 5 16 141 310 q 277 604 277 636 l 332 636 q 332 607 466 317 q 600 26 600 0 l 550 0 q 550 32 462 232 z m 304 596 l 300 596 q 300 582 155 264 l 447 264 q 375 433 339 510 q 304 588 304 596 z"},"f":{"x_min":0,"x_max":317,"ha":317,"o":"m 310 652 q 279 660 250 660 q 196 660 178 615 q 159 569 159 453 q 201 453 307 458 l 305 416 q 188 419 159 419 q 159 177 164 0 l 113 0 q 119 147 119 419 q 89 419 0 416 l 3 457 l 46 456 q 100 453 119 453 q 119 560 132 607 q 145 655 176 678 q 208 701 259 701 q 281 701 321 693 z"},"Q":{"x_min":0,"x_max":691,"ha":691,"o":"m 606 -215 q 587 -140 564 -93 q 540 -45 499 -33 q 458 -20 349 -20 q 231 -20 144 64 q 57 148 57 301 q 57 467 148 557 q 238 647 352 647 q 460 647 547 562 q 634 478 634 326 q 634 202 586 124 q 538 46 460 8 l 460 3 q 552 3 586 -46 q 620 -94 648 -213 z m 337 614 q 250 614 175 533 q 99 453 99 309 q 99 161 178 87 q 257 13 354 13 q 442 13 517 95 q 592 177 592 317 q 592 469 513 542 q 435 614 337 614 z"},"w":{"x_min":0,"x_max":745,"ha":745,"o":"m 720 464 q 720 448 656 303 q 592 158 567 87 q 542 16 542 0 l 519 0 q 519 13 507 46 q 495 79 460 167 l 422 262 q 398 324 385 358 q 372 392 365 417 q 354 390 339 349 l 323 304 q 311 273 261 146 q 211 19 211 0 l 188 0 q 188 36 104 234 q 21 432 21 464 l 66 464 q 66 430 135 260 q 203 90 203 69 l 206 69 q 206 85 230 155 q 254 225 300 334 q 345 443 345 464 l 395 464 q 395 435 465 258 q 534 81 534 69 l 537 69 q 537 83 551 133 q 565 182 598 258 q 630 334 652 390 q 673 445 673 464 z"},"-":{"x_min":0,"x_max":252,"ha":252,"o":"m 234 273 l 228 234 l 19 228 l 23 264 z"},"E":{"x_min":0,"x_max":515,"ha":515,"o":"m 109 0 l 112 102 q 118 250 118 335 q 118 424 114 527 q 109 630 109 636 l 455 636 l 453 596 q 345 600 153 600 q 155 492 155 352 q 308 352 395 358 l 395 314 q 279 319 155 319 l 155 211 q 155 106 157 35 q 337 35 486 43 l 484 0 z"},"s":{"x_min":0,"x_max":419,"ha":419,"o":"m 54 16 l 65 62 q 98 47 136 40 q 175 33 225 33 q 272 33 299 56 q 326 78 326 114 q 326 143 312 166 q 298 188 247 208 q 196 229 153 249 q 109 269 89 297 q 68 325 68 361 q 68 414 110 444 q 152 475 216 475 q 286 475 347 457 l 336 416 q 288 436 211 436 q 163 436 135 415 q 107 393 107 362 q 107 326 137 306 q 167 286 237 258 q 307 229 336 200 q 365 171 365 120 q 365 59 324 26 q 283 -8 211 -8 q 129 -8 54 16 z"},">":{"x_min":0,"x_max":504,"ha":504,"o":"m 71 48 l 393 249 l 393 260 l 68 464 l 93 493 l 453 263 l 453 247 l 93 17 z"},"l":{"x_min":0,"x_max":205,"ha":205,"o":"m 65 688 l 123 690 q 117 561 117 365 q 117 171 125 0 l 68 0 q 77 152 77 365 q 77 545 65 688 z"},"8":{"x_min":0,"x_max":564,"ha":564,"o":"m 74 175 q 74 229 117 280 q 160 331 232 363 l 232 365 q 169 402 141 438 q 113 474 113 523 q 113 586 161 626 q 209 667 283 667 q 361 667 406 630 q 451 594 451 529 q 451 483 422 441 q 393 398 331 368 l 331 366 q 410 322 451 275 q 492 229 492 180 q 492 98 431 45 q 369 -8 279 -8 q 194 -8 134 43 q 74 94 74 175 z m 156 536 q 156 492 190 453 q 225 414 291 384 q 347 410 379 446 q 411 481 411 530 q 411 574 377 604 q 343 633 282 633 q 229 633 192 607 q 156 581 156 536 z m 449 161 q 449 211 409 254 q 369 296 270 347 q 213 328 165 277 q 116 225 116 174 q 116 107 164 66 q 212 26 286 26 q 346 26 398 64 q 449 103 449 161 z"},"\\":{"x_min":0,"x_max":267,"ha":267,"o":"m 249 -147 l 197 -147 q 197 -59 107 309 q 18 676 18 710 l 69 710 q 69 627 159 255 q 249 -117 249 -147 z"},"e":{"x_min":0,"x_max":514,"ha":514,"o":"m 101 244 q 101 149 159 88 q 218 26 317 26 q 392 26 442 41 l 435 2 q 420 -3 388 -8 q 356 -12 321 -12 q 191 -12 126 56 q 61 124 61 224 q 61 277 74 323 q 87 368 113 406 q 174 486 271 486 q 358 486 406 430 q 454 374 454 291 q 454 264 452 248 z m 104 279 l 410 279 q 410 361 375 406 q 339 450 269 450 q 204 450 160 406 q 116 363 104 279 z"},"b":{"x_min":0,"x_max":557,"ha":557,"o":"m 130 19 l 128 19 l 119 0 l 83 0 q 88 139 88 365 q 88 554 80 685 l 134 690 q 129 640 129 417 l 131 417 q 153 444 196 463 q 238 481 289 481 q 387 481 441 414 q 496 348 496 250 q 496 136 432 62 q 368 -12 267 -12 q 221 -12 186 -3 q 150 7 130 19 z m 127 371 q 127 188 133 57 q 183 23 258 23 q 355 23 402 87 q 449 150 449 241 q 449 341 401 391 q 353 442 276 442 q 175 442 127 371 z"},"%":{"x_min":0,"x_max":504,"ha":504,"o":"m 152 639 q 207 639 240 606 q 274 573 274 521 q 274 470 240 437 q 206 403 152 403 q 97 403 63 436 q 30 469 30 521 q 30 572 64 606 q 98 639 152 639 z m 73 0 l 30 5 q 30 50 228 317 q 426 584 426 636 l 469 631 q 469 589 271 324 q 73 59 73 0 z m 151 433 q 191 433 213 458 q 235 482 235 520 q 235 559 212 583 q 188 608 151 608 q 114 608 91 583 q 68 558 68 520 q 68 481 90 457 q 112 433 151 433 z m 351 231 q 406 231 440 198 q 473 165 473 113 q 473 62 439 29 q 405 -5 351 -5 q 296 -5 263 28 q 229 61 229 113 q 229 165 263 198 q 297 231 351 231 z m 350 25 q 390 25 412 50 q 434 74 434 112 q 434 151 411 176 q 388 200 350 200 q 314 200 291 175 q 267 150 267 112 q 267 73 289 49 q 311 25 350 25 z"},"m":{"x_min":0,"x_max":817,"ha":817,"o":"m 131 408 l 132 408 q 198 480 272 480 q 336 480 376 462 q 416 443 428 408 l 432 408 q 469 443 506 462 q 544 480 579 480 q 661 480 702 443 q 743 407 743 318 l 742 270 l 741 243 l 742 162 q 743 95 743 0 l 696 0 q 707 133 707 325 q 707 388 678 414 q 648 440 575 440 q 542 440 506 421 q 471 403 438 367 q 436 328 436 243 q 436 162 439 0 l 391 0 q 400 125 400 305 q 400 391 367 416 q 333 440 268 440 q 200 440 128 374 q 127 344 127 264 q 127 176 128 52 l 129 0 l 84 0 q 93 180 93 240 q 93 338 73 464 l 121 474 z"},"#":{"x_min":0,"x_max":504,"ha":504,"o":"m 386 447 l 467 447 l 465 418 l 376 418 l 326 262 l 408 262 l 409 232 l 316 232 q 304 193 272 103 q 241 12 239 0 l 204 0 q 204 4 211 21 l 221 48 q 253 135 285 232 l 149 232 q 137 193 105 103 q 74 12 72 0 l 37 0 q 37 4 44 21 l 54 48 q 86 135 118 232 l 37 232 l 39 262 l 128 262 l 178 418 l 96 418 l 96 447 l 188 447 l 203 492 q 228 565 237 596 q 246 626 247 639 l 284 639 q 283 630 262 573 q 242 515 219 447 l 355 447 q 407 604 410 639 l 451 639 q 450 630 429 573 q 409 515 386 447 z m 295 262 l 345 418 l 209 418 l 159 262 z"},",":{"x_min":0,"x_max":252,"ha":252,"o":"m 127 5 q 104 5 90 17 q 77 29 77 50 q 77 74 90 87 q 103 99 121 99 q 140 99 151 84 q 163 69 163 44 q 163 -9 139 -53 q 116 -97 59 -146 l 46 -128 q 81 -97 101 -66 q 122 -35 127 5 z"},"n":{"x_min":0,"x_max":534,"ha":534,"o":"m 130 408 l 131 408 q 211 480 290 480 q 375 480 417 444 q 460 408 460 318 l 459 283 q 459 274 459 258 q 459 198 459 162 l 460 0 l 411 0 q 423 149 423 309 q 423 384 383 412 q 342 440 279 440 q 197 440 130 377 q 129 341 129 255 q 129 191 129 135 l 130 31 q 130 21 131 0 l 84 0 q 93 180 93 240 q 93 338 73 464 l 121 474 z"},"h":{"x_min":0,"x_max":534,"ha":534,"o":"m 73 688 l 131 690 l 129 635 q 126 464 126 411 l 127 411 q 167 445 212 462 q 257 480 299 480 q 375 480 419 443 q 463 405 463 313 l 463 278 q 462 261 462 223 q 462 108 463 0 l 414 0 q 424 127 424 311 q 424 380 390 410 q 357 440 294 440 q 210 440 126 377 q 126 76 130 0 l 83 0 q 87 146 87 365 q 87 578 73 688 z"},"z":{"x_min":0,"x_max":467,"ha":467,"o":"m 386 420 q 373 404 353 376 l 324 337 q 281 278 198 166 q 114 54 114 39 l 114 38 q 319 38 407 44 l 403 0 l 60 0 l 62 43 q 87 73 125 123 q 163 173 226 257 q 289 341 314 379 q 339 417 339 423 l 339 428 q 159 428 62 420 l 66 464 l 389 464 z"},"B":{"x_min":0,"x_max":574,"ha":574,"o":"m 109 0 l 112 102 q 118 250 118 335 q 118 385 117 442 q 115 498 113 563 l 110 636 l 151 636 q 174 636 207 638 l 239 639 q 258 639 280 639 q 376 639 425 604 q 473 569 473 500 q 473 447 446 407 q 418 367 374 348 l 374 345 q 438 338 478 299 q 517 260 517 199 q 517 102 441 49 q 365 -3 240 -3 q 216 -3 109 0 z m 152 600 q 154 591 154 534 q 155 477 155 363 q 175 362 237 362 l 258 361 q 322 361 376 386 q 430 412 433 489 q 433 546 395 575 q 357 603 276 603 q 227 603 191 602 q 155 600 152 600 z m 155 324 l 154 180 q 154 88 157 38 q 183 32 234 32 q 345 32 411 71 q 477 109 477 186 q 477 254 423 291 q 369 328 249 328 q 211 328 192 327 q 174 327 155 324 z"},"K":{"x_min":0,"x_max":595,"ha":595,"o":"m 172 341 l 155 341 q 155 169 160 0 l 109 0 q 113 101 115 177 q 117 253 117 335 q 117 483 109 636 l 160 636 q 155 535 155 373 l 168 373 q 207 373 331 497 q 455 621 455 636 l 514 636 q 514 630 488 606 q 461 583 372 492 q 282 401 229 365 l 229 362 q 261 354 302 316 q 344 278 437 171 q 578 10 578 0 l 523 0 q 521 4 470 66 q 418 127 367 188 q 288 280 246 310 q 205 341 172 341 z"},"R":{"x_min":0,"x_max":615,"ha":615,"o":"m 239 639 q 268 639 285 639 q 387 639 438 601 q 489 562 489 486 q 489 425 457 381 q 424 337 367 313 l 367 310 q 424 294 466 221 q 508 148 562 0 l 518 0 q 484 89 449 161 q 414 232 388 254 q 363 275 342 282 q 320 290 250 290 q 181 290 156 289 q 156 87 162 0 l 109 0 q 114 100 116 175 q 119 250 119 335 q 119 497 111 636 l 168 636 z m 262 326 q 345 326 395 367 q 446 409 446 476 q 446 544 402 574 q 359 603 258 603 q 198 603 154 600 q 156 565 156 506 q 156 456 155 428 l 155 327 q 165 326 191 326 z"},"T":{"x_min":0,"x_max":492,"ha":492,"o":"m 413 598 q 305 600 272 600 q 267 486 267 336 q 267 176 272 0 l 221 0 q 229 205 229 335 q 229 404 227 461 q 226 518 222 600 q 184 600 108 598 l 11 595 l 11 636 l 483 636 l 481 596 z"},"P":{"x_min":0,"x_max":551,"ha":551,"o":"m 252 639 q 267 639 285 639 q 386 639 448 602 q 509 564 509 485 q 509 383 431 327 q 353 271 231 271 q 188 271 168 272 l 156 272 q 156 187 157 123 q 158 59 162 0 l 109 0 q 119 188 119 335 q 119 489 111 636 l 170 636 q 196 636 226 638 z m 277 603 q 197 603 154 600 q 156 556 156 307 q 170 306 220 306 q 338 306 403 351 q 467 395 467 475 q 467 543 421 573 q 376 603 277 603 z"},"|":{"x_min":0,"x_max":252,"ha":252,"o":"m 150 -252 l 103 -252 q 106 -105 106 85 l 106 230 q 106 540 102 757 l 149 757 q 146 524 146 195 q 146 56 147 -45 q 147 -146 150 -252 z"},"t":{"x_min":0,"x_max":355,"ha":355,"o":"m 318 3 q 275 -10 245 -10 q 160 -10 135 38 q 110 85 110 191 q 110 319 111 419 q 82 419 20 416 l 22 456 q 76 453 115 453 q 115 506 121 594 l 164 597 q 155 484 155 453 q 197 453 312 458 l 309 416 q 208 419 152 419 q 149 333 149 218 q 149 91 177 59 q 204 27 255 27 q 269 27 284 30 q 299 32 322 38 z"},"M":{"x_min":0,"x_max":844,"ha":844,"o":"m 692 0 q 688 160 676 337 q 663 515 661 534 q 658 554 657 574 l 656 574 l 552 328 q 462 112 446 63 q 430 14 430 0 l 395 0 q 395 28 343 170 q 291 312 242 449 q 193 585 186 597 l 183 597 q 181 471 157 259 q 133 47 133 0 l 88 0 q 96 40 124 274 q 152 509 152 636 l 219 636 q 219 628 245 554 q 271 480 315 354 l 351 255 q 390 148 402 110 q 414 72 414 59 l 417 59 q 417 95 524 340 q 632 584 632 636 l 698 636 q 698 573 713 367 q 728 161 734 86 l 741 0 z"},"g":{"x_min":0,"x_max":529,"ha":529,"o":"m 134 37 l 134 39 q 118 45 107 62 q 97 78 97 104 q 97 148 140 183 l 140 184 q 118 193 95 226 q 72 260 72 306 q 72 378 120 428 q 169 479 253 479 q 330 479 372 445 l 376 445 q 386 485 405 505 q 424 524 453 524 q 493 524 508 521 l 504 480 q 451 480 423 467 q 395 454 394 432 l 394 429 q 413 407 423 385 q 432 362 432 333 q 432 283 409 243 q 386 204 339 183 q 293 162 243 162 q 217 162 195 165 q 172 168 161 173 q 132 151 132 115 q 132 85 168 73 q 205 62 321 62 q 498 62 498 -50 q 498 -135 432 -193 q 365 -252 248 -252 q 156 -252 102 -214 q 47 -175 47 -99 q 47 -54 68 -18 q 90 19 134 37 z m 245 445 q 184 445 147 412 q 110 379 110 323 q 110 262 149 229 q 188 197 253 197 q 312 197 350 229 q 388 261 388 316 q 388 376 350 411 q 312 445 245 445 z m 274 21 q 213 21 157 28 q 122 13 103 -15 q 83 -42 83 -81 q 83 -146 129 -180 q 176 -215 266 -215 q 361 -215 412 -176 q 464 -136 464 -81 q 464 -27 426 -3 q 388 21 274 21 z"},"j":{"x_min":0,"x_max":188,"ha":188,"o":"m 101 635 q 116 635 124 628 q 131 621 131 609 q 131 592 123 579 q 116 566 95 566 q 78 566 70 578 q 62 589 62 604 q 62 618 71 626 q 80 635 101 635 z m 110 160 q 110 123 113 53 q 115 -16 115 -40 q 115 -106 89 -150 q 62 -194 13 -215 l 0 -197 q 46 -155 59 -124 q 72 -92 72 -5 l 72 145 q 72 263 69 338 q 66 413 59 460 l 114 473 q 109 394 109 287 z"},"i":{"x_min":0,"x_max":192,"ha":192,"o":"m 134 609 q 134 591 125 579 q 116 566 98 566 q 83 566 74 577 q 65 588 65 604 q 65 621 75 634 q 86 647 104 647 q 117 647 125 635 q 134 624 134 609 z m 62 460 l 117 473 q 112 359 112 216 q 112 97 119 0 l 68 0 q 75 118 75 216 q 75 354 62 460 z"},"y":{"x_min":0,"x_max":442,"ha":442,"o":"m 62 -216 l 64 -176 q 134 -176 171 -125 q 208 -75 208 -8 q 208 23 172 119 q 136 214 55 396 l 25 464 l 79 464 q 79 448 155 266 q 231 84 234 43 l 236 43 q 236 78 300 251 q 364 425 364 464 l 414 464 q 414 446 390 391 q 365 335 314 195 q 264 55 242 -38 q 220 -131 177 -174 q 134 -216 62 -216 z"},"@":{"x_min":0,"x_max":1009,"ha":1009,"o":"m 724 21 q 800 21 850 104 q 900 188 900 336 q 900 481 791 582 q 681 682 527 682 q 340 682 225 550 q 109 417 109 198 q 109 28 214 -83 q 320 -194 474 -194 q 514 -194 544 -190 q 573 -186 599 -176 l 606 -217 q 546 -232 476 -232 q 300 -232 183 -109 q 67 14 67 197 q 67 425 194 573 q 321 720 525 720 q 703 720 822 609 q 942 498 942 334 q 942 183 883 84 q 824 -14 718 -14 q 671 -14 638 21 q 604 56 600 139 l 599 139 q 567 68 522 27 q 478 -14 428 -14 q 373 -14 340 34 q 307 82 307 163 q 307 307 375 399 q 444 491 558 491 q 583 491 606 477 q 629 463 641 442 l 645 442 l 664 476 l 694 486 q 673 392 656 302 q 638 212 636 194 q 635 177 635 140 q 635 90 660 55 q 685 21 724 21 z m 435 23 q 501 23 564 142 q 626 261 630 412 q 620 430 601 442 q 581 454 554 454 q 461 454 407 373 q 352 292 352 149 q 352 85 374 54 q 396 23 435 23 z"},".":{"x_min":0,"x_max":252,"ha":252,"o":"m 131 100 q 154 100 163 88 q 172 76 172 55 q 172 33 157 17 q 143 1 121 1 q 100 1 90 14 q 80 28 80 47 q 80 71 94 86 q 108 100 131 100 z"},"p":{"x_min":0,"x_max":552,"ha":552,"o":"m 121 417 l 123 417 q 146 445 189 463 q 232 481 290 481 q 383 481 436 412 q 489 343 489 250 q 489 136 426 62 q 362 -12 260 -12 q 212 -12 179 -3 q 146 6 131 19 l 127 19 q 127 -132 130 -223 l 77 -223 q 80 -160 81 -79 q 81 3 81 96 l 81 187 q 81 290 79 353 q 76 416 68 464 l 114 474 z m 270 442 q 221 442 183 423 q 145 403 119 372 q 119 324 122 250 l 123 153 q 124 92 124 57 q 147 41 180 32 q 214 23 252 23 q 342 23 392 83 q 442 144 442 244 q 442 338 396 390 q 350 442 270 442 z"},"X":{"x_min":0,"x_max":530,"ha":530,"o":"m 470 0 q 470 20 429 90 q 387 160 266 319 l 263 319 l 223 265 q 143 159 102 89 q 61 18 61 0 l 5 0 q 5 12 86 127 q 167 242 169 246 l 242 347 l 242 352 l 226 375 q 146 482 96 555 q 46 627 46 636 l 101 636 q 101 628 121 594 q 141 561 173 513 l 191 488 q 236 423 266 383 l 271 383 q 282 397 292 410 l 309 434 q 382 531 410 579 q 438 626 438 636 l 499 636 q 499 629 470 595 q 441 561 403 508 l 392 492 q 385 482 354 438 q 323 395 292 354 l 292 350 q 370 245 448 132 q 525 19 525 0 z"},"*":{"x_min":0,"x_max":504,"ha":504,"o":"m 305 493 l 282 491 l 279 476 q 304 454 337 414 q 371 375 371 350 q 371 332 357 322 q 343 312 328 312 q 308 312 292 333 q 277 354 256 460 l 240 459 q 223 408 196 359 q 168 311 140 311 q 125 311 113 322 q 101 333 101 349 q 101 376 141 413 q 181 449 222 478 l 222 494 q 204 494 172 497 q 140 500 102 507 q 64 514 64 544 q 64 562 74 578 q 83 593 101 593 q 115 593 138 580 q 161 567 216 525 l 233 512 l 241 516 q 230 554 222 587 q 215 620 215 652 q 215 676 223 688 q 231 701 256 701 q 279 701 289 691 q 299 681 299 662 q 299 641 288 601 q 277 561 261 516 l 271 512 q 299 530 338 559 q 376 588 399 588 q 418 588 429 574 q 440 559 440 542 q 440 510 404 504 q 367 499 305 493 z"},"Y":{"x_min":0,"x_max":551,"ha":551,"o":"m 295 0 l 244 0 l 245 12 q 250 160 250 201 q 250 281 191 375 q 133 468 75 548 q 17 627 17 636 l 71 636 q 71 624 166 486 q 260 349 274 266 l 278 266 q 279 300 307 355 q 335 409 376 469 q 417 529 451 580 q 486 631 486 636 l 534 636 q 534 622 460 523 q 387 424 339 345 q 291 267 291 200 q 291 106 295 0 z"},"c":{"x_min":0,"x_max":459,"ha":459,"o":"m 320 26 q 343 26 364 30 q 384 34 414 44 l 414 9 q 397 -1 366 -7 q 334 -12 309 -12 q 198 -12 130 54 q 62 121 62 225 q 62 305 95 360 q 128 415 181 448 q 235 480 312 480 q 362 480 393 467 l 385 418 q 353 428 331 433 q 309 438 286 438 q 239 438 196 412 q 152 386 128 343 q 104 299 104 241 q 104 142 164 84 q 224 26 320 26 z"},"!":{"x_min":0,"x_max":252,"ha":252,"o":"m 112 390 l 107 499 q 105 552 105 584 q 105 610 112 626 q 120 641 135 641 q 163 641 163 592 q 163 534 150 416 q 137 297 134 262 l 117 262 q 116 311 112 390 z m 131 100 q 154 100 163 88 q 172 76 172 55 q 172 33 157 17 q 143 1 121 1 q 100 1 90 14 q 80 28 80 47 q 80 71 94 86 q 108 100 131 100 z"},"/":{"x_min":0,"x_max":267,"ha":267,"o":"m 67 -147 l 21 -147 q 21 -117 113 258 q 206 632 208 710 l 255 710 q 255 688 224 559 q 193 430 172 347 q 151 264 109 81 q 67 -102 67 -147 z"},"[":{"x_min":0,"x_max":353,"ha":353,"o":"m 288 706 q 225 708 183 708 l 122 707 q 122 588 118 267 q 118 205 120 116 l 121 -18 l 122 -202 l 185 -203 q 229 -203 292 -201 l 288 -238 l 77 -231 q 82 163 82 269 q 82 342 77 736 l 292 743 z"},"6":{"x_min":0,"x_max":574,"ha":574,"o":"m 117 318 q 144 354 193 375 q 243 396 296 396 q 397 396 449 343 q 501 289 501 189 q 501 96 440 37 q 379 -22 283 -22 q 188 -22 131 55 q 74 132 74 255 q 74 631 398 656 l 403 622 q 270 610 200 537 q 131 464 115 318 z m 284 360 q 240 360 190 337 q 141 313 117 279 q 117 164 162 88 q 206 12 293 12 q 367 12 413 60 q 459 107 459 179 q 459 263 412 311 q 366 360 284 360 z"},"r":{"x_min":0,"x_max":324,"ha":324,"o":"m 329 421 q 290 437 247 437 q 202 437 168 411 q 135 385 119 336 q 119 106 123 0 l 75 0 q 80 134 80 240 q 80 351 61 463 l 104 474 q 115 416 116 395 l 122 395 q 152 438 183 459 q 214 480 248 480 q 287 480 342 464 z"},"2":{"x_min":0,"x_max":445,"ha":445,"o":"m 49 0 l 59 40 l 79 55 q 133 96 183 139 q 232 183 274 243 q 315 303 315 363 q 315 418 277 449 q 238 480 168 480 q 141 480 105 477 q 70 474 56 469 l 67 511 q 82 515 110 518 q 138 520 168 520 q 254 520 306 481 q 358 441 358 375 q 358 278 287 198 q 216 118 101 33 l 101 32 q 271 32 395 38 l 386 0 z"},"{":{"x_min":0,"x_max":353,"ha":353,"o":"m 328 -208 l 317 -237 q 207 -209 170 -172 q 134 -134 134 -71 q 134 -33 154 41 q 174 114 174 144 q 174 187 145 207 q 116 226 56 234 l 56 272 q 115 280 145 300 q 174 319 174 362 q 174 392 154 465 q 134 538 134 577 q 134 641 170 678 q 207 715 317 743 l 328 714 q 245 697 206 666 q 167 634 167 577 q 167 544 189 465 q 211 387 211 364 q 211 316 177 287 q 144 258 92 254 l 92 253 q 144 249 177 219 q 211 190 211 142 q 211 120 189 41 q 167 -38 167 -71 q 167 -128 206 -159 q 245 -191 328 -208 z"},"9":{"x_min":0,"x_max":567,"ha":567,"o":"m 454 178 q 427 142 382 122 q 336 102 283 102 q 180 102 127 156 q 74 209 74 309 q 74 404 133 462 q 192 520 287 520 q 383 520 440 440 q 497 361 497 241 q 497 29 410 -78 q 322 -185 155 -198 l 141 -164 q 286 -151 364 -68 q 442 16 456 178 z m 291 138 q 336 138 383 160 q 430 182 454 217 q 454 336 408 411 q 362 486 282 486 q 210 486 163 439 q 116 392 116 319 q 116 234 163 186 q 209 138 291 138 z"}," ":{"x_min":0,"x_max":217,"ha":217,"o":""},"I":{"x_min":0,"x_max":270,"ha":270,"o":"m 109 0 q 117 217 117 335 q 117 471 109 636 l 160 636 q 155 520 155 336 q 155 172 160 0 z"},"H":{"x_min":0,"x_max":651,"ha":651,"o":"m 491 0 q 496 195 496 319 l 155 319 q 155 172 160 0 l 109 0 q 117 217 117 335 q 117 471 109 636 l 160 636 q 155 520 155 350 l 496 350 q 496 493 490 636 l 541 636 q 533 481 533 335 q 533 167 541 0 z"},"4":{"x_min":0,"x_max":529,"ha":529,"o":"m 391 86 l 391 -20 q 391 -95 393 -161 l 346 -161 q 352 -69 352 86 l 53 86 l 44 112 q 44 119 76 162 q 107 205 165 281 l 186 309 q 194 321 266 415 q 338 509 338 515 l 395 515 q 393 489 392 358 q 391 227 391 120 q 437 120 485 126 l 476 86 z m 220 300 q 208 283 147 203 q 86 124 86 119 l 86 117 q 216 117 352 120 q 352 357 354 478 l 351 478 q 347 471 328 445 q 310 418 250 339 z"},"~":{"x_min":0,"x_max":504,"ha":504,"o":"m 30 168 l 8 181 q 43 241 82 268 q 120 294 167 294 q 206 294 272 272 q 337 251 372 251 q 400 251 425 268 q 449 286 468 316 l 496 305 q 462 255 424 234 q 386 214 338 214 q 311 214 246 235 q 181 256 153 256 q 118 256 88 234 q 59 212 30 168 z"},"D":{"x_min":0,"x_max":641,"ha":641,"o":"m 201 638 q 229 639 255 639 q 410 639 495 562 q 581 484 581 330 q 581 177 490 84 q 400 -8 248 -8 q 234 -8 193 -5 l 109 0 q 117 177 117 335 q 117 483 109 636 l 136 636 q 158 636 174 637 z m 263 603 q 192 603 154 599 q 154 514 154 470 l 155 335 l 154 195 q 154 99 157 32 q 177 29 197 28 q 217 27 246 27 q 386 27 462 104 q 539 181 539 319 q 539 470 464 537 q 390 603 263 603 z"},"^":{"x_min":0,"x_max":504,"ha":504,"o":"m 490 333 l 452 321 l 257 632 l 246 632 l 53 321 l 15 333 l 244 692 l 260 692 z"},"0":{"x_min":0,"x_max":564,"ha":564,"o":"m 288 514 q 382 514 437 440 q 492 367 492 268 q 492 155 435 76 q 377 -4 276 -4 q 183 -4 128 72 q 74 147 74 254 q 74 355 133 435 q 192 514 288 514 z m 286 29 q 366 29 408 95 q 450 162 450 260 q 450 344 405 412 q 359 481 279 481 q 201 481 158 412 q 116 344 116 261 q 116 161 165 95 q 213 29 286 29 z"},"F":{"x_min":0,"x_max":487,"ha":487,"o":"m 458 596 q 360 600 153 600 q 155 496 155 338 q 295 338 381 342 l 381 300 q 336 302 290 303 q 243 303 155 303 q 155 151 156 89 q 157 27 160 0 l 109 0 l 112 102 q 118 250 118 335 q 118 402 116 459 q 114 517 111 594 l 109 636 l 461 636 z"},"`":{"x_min":0,"x_max":274,"ha":274,"o":"m 67 688 l 136 688 q 136 683 180 611 q 224 540 224 530 l 197 530 q 197 536 174 562 q 151 588 133 609 q 115 629 91 657 q 67 686 67 688 z"},"k":{"x_min":0,"x_max":467,"ha":467,"o":"m 125 287 l 126 287 q 145 287 193 325 q 242 362 298 407 q 353 452 353 464 l 422 464 q 422 458 404 441 q 386 425 335 387 l 265 336 q 199 287 188 279 l 188 278 q 217 254 251 222 q 285 190 344 132 l 367 110 q 424 52 444 29 q 464 5 464 0 l 397 0 q 397 12 316 96 q 234 180 189 223 q 144 266 127 266 l 125 266 q 125 224 128 130 q 132 37 133 0 l 77 0 q 78 49 79 72 l 82 175 q 84 263 84 365 q 84 570 73 688 l 130 690 q 125 473 125 367 z"},"u":{"x_min":0,"x_max":531,"ha":531,"o":"m 425 -1 q 419 26 419 46 l 417 46 q 389 23 346 6 q 304 -11 254 -11 q 152 -11 119 33 q 87 78 87 155 l 87 217 q 87 229 88 250 q 89 277 89 322 q 89 384 83 462 l 135 465 q 131 379 131 270 q 131 182 136 127 q 141 73 166 51 q 192 29 257 29 q 359 29 416 83 q 416 375 412 462 l 458 465 l 458 432 q 455 285 455 199 q 455 98 464 0 z"},"]":{"x_min":0,"x_max":353,"ha":353,"o":"m 276 736 q 271 342 271 269 q 271 163 276 -231 l 65 -238 l 61 -201 q 125 -203 168 -203 l 231 -202 q 231 -109 232 -18 l 233 116 l 235 236 q 235 267 233 428 q 231 588 231 707 l 170 708 q 129 708 65 706 l 61 743 z"},"U":{"x_min":0,"x_max":707,"ha":707,"o":"m 106 285 q 106 451 98 636 l 149 636 l 148 594 q 144 412 144 370 q 144 219 164 153 q 184 87 226 57 q 269 27 351 27 q 470 27 518 108 q 566 188 566 371 q 566 409 563 498 q 561 586 558 636 l 607 636 q 605 583 604 479 q 602 375 602 307 q 602 152 536 72 q 471 -9 350 -9 q 220 -9 163 62 q 106 132 106 285 z"},"o":{"x_min":0,"x_max":559,"ha":559,"o":"m 62 214 q 62 339 128 412 q 195 485 291 485 q 367 485 431 427 q 495 368 495 249 q 495 125 428 53 q 362 -19 269 -19 q 181 -19 121 43 q 62 105 62 214 z m 104 236 q 104 138 152 76 q 200 14 279 14 q 368 14 411 83 q 454 153 454 230 q 454 325 405 389 q 356 452 278 452 q 188 452 146 383 q 104 314 104 236 z"},"N":{"x_min":0,"x_max":672,"ha":672,"o":"m 200 571 q 397 289 460 189 q 523 89 526 80 l 528 80 q 523 189 523 295 l 523 427 q 523 560 520 636 l 563 636 q 557 524 557 316 q 557 222 558 149 q 559 77 563 0 l 535 0 q 534 0 469 102 q 403 204 352 279 l 240 442 l 204 496 q 179 531 167 550 q 154 569 149 578 l 147 578 q 151 462 151 367 q 151 323 150 241 l 149 130 q 149 51 152 0 l 109 0 q 117 188 117 335 q 117 483 109 636 l 155 636 q 155 635 173 609 z"},"+":{"x_min":0,"x_max":504,"ha":504,"o":"m 452 228 l 272 228 l 272 36 l 234 36 l 234 228 l 52 228 l 52 264 l 234 264 l 234 456 l 272 456 l 272 264 l 452 264 z"},"G":{"x_min":0,"x_max":620,"ha":620,"o":"m 407 645 q 459 645 509 630 l 500 585 q 417 605 378 605 q 252 605 176 525 q 99 444 99 323 q 99 172 177 97 q 255 21 404 21 q 433 21 453 23 q 474 26 503 32 q 499 72 499 160 q 499 186 497 225 l 495 265 l 545 265 q 543 245 541 167 q 539 89 539 39 q 539 16 539 9 q 489 -13 398 -13 q 236 -13 147 72 q 57 156 57 308 q 57 457 156 551 q 256 645 407 645 z"},"q":{"x_min":0,"x_max":557,"ha":557,"o":"m 425 52 q 403 24 359 6 q 314 -12 262 -12 q 173 -12 117 54 q 62 121 62 219 q 62 333 125 407 q 188 482 291 482 q 388 482 435 446 l 436 446 l 458 464 l 477 466 q 470 263 470 140 q 470 8 478 -222 l 426 -222 q 428 -164 429 -96 q 429 -29 429 52 z m 427 405 q 401 427 371 437 q 340 447 299 447 q 207 447 158 386 q 109 325 109 223 q 109 130 155 80 q 201 29 282 29 q 333 29 368 46 q 404 63 430 98 q 430 188 430 264 q 429 340 427 405 z"},"d":{"x_min":0,"x_max":550,"ha":550,"o":"m 469 465 l 469 367 q 469 149 478 0 l 437 -1 q 433 22 433 52 l 428 52 q 406 25 362 6 q 319 -12 264 -12 q 175 -12 118 55 q 62 122 62 219 q 62 335 126 409 q 190 482 297 482 q 341 482 374 472 q 406 462 424 443 l 425 443 q 425 531 421 687 l 472 690 q 468 631 468 548 q 468 494 469 465 z m 425 407 q 404 427 373 437 q 341 447 304 447 q 207 447 158 388 q 109 330 109 219 q 109 132 156 80 q 202 28 284 28 q 325 28 359 41 q 393 55 432 96 q 432 121 433 171 q 433 298 425 407 z"},"1":{"x_min":0,"x_max":366,"ha":366,"o":"m 204 457 l 63 367 l 45 394 l 224 524 l 248 524 q 243 398 243 225 q 243 102 248 0 l 201 0 q 208 76 208 225 q 208 429 204 457 z"},"5":{"x_min":0,"x_max":509,"ha":509,"o":"m 143 482 q 134 405 128 352 q 123 299 123 267 q 292 265 365 222 q 437 179 437 82 q 437 11 389 -49 q 341 -108 259 -143 q 177 -177 85 -179 l 73 -144 q 213 -137 303 -80 q 393 -23 393 67 q 393 134 360 168 q 326 202 263 214 q 199 226 80 226 q 105 436 105 515 l 386 515 l 384 471 q 271 482 143 482 z"}}}
